<svg width="70" height="70" viewBox="0 0 70 70" fill="none" xmlns="http://www.w3.org/2000/svg">
<path d="M65.3333 64.1667H63V6.99999H31.5V4.66666H65.3333V64.1667Z" fill="#275BA8"/>
<path d="M70 59.5H67.6667V2.33333H36.1667V0H70V59.5Z" fill="#275BA8"/>
<path d="M26.3503 9.33334L11.6667 24.0169V32.6667H14V25.6667H28V11.6667H58.3333V67.6667H14V65.3333H11.6667V70H60.6667V9.33334H26.3503ZM15.6497 23.3333L25.6667 13.3164V23.3333H15.6497Z" fill="#275BA8"/>
<path d="M42 64.1667V44.7765C42.9827 45.3103 44.1744 45.2847 45.1331 44.7093C46.0919 44.134 46.6752 43.0949 46.6667 41.9766C46.6592 40.8339 46.044 39.7817 45.0522 39.2138L23.3333 27.8496L1.56314 39.2468C0.596993 39.8188 0.00283638 40.8573 -1.19209e-05 41.9801V41.992C-0.00684786 43.1319 0.604399 44.1858 1.59732 44.7463C2.08153 45.0255 2.63012 45.173 3.18838 45.1747C3.70678 45.173 4.21548 45.0386 4.66665 44.7839V64.1667H42ZM2.75544 42.7201C2.49112 42.5742 2.32876 42.2939 2.33332 41.992V41.9801C2.32819 41.7004 2.46548 41.4372 2.69734 41.28L23.3333 30.4837L43.9192 41.2555C44.1784 41.4104 44.3356 41.6901 44.3333 41.992C44.3379 42.2939 44.1755 42.5742 43.9112 42.7201C43.6287 42.8784 43.2806 42.8653 43.0117 42.6847L23.3333 32.5197L3.59911 42.7149C3.34048 42.8733 3.01578 42.875 2.75544 42.7201ZM6.99999 61.8333V43.5831L23.3333 35.147L39.6667 43.582V61.8333H18.6667V45.5H9.33332V61.8333H6.99999ZM11.6667 61.8333V47.8333H16.3333V61.8333H11.6667Z" fill="#275BA8"/>
<path d="M23.3333 44.3333C25.2662 44.3333 26.8333 42.7662 26.8333 40.8333C26.8333 38.9005 25.2662 37.3333 23.3333 37.3333C21.4005 37.3333 19.8333 38.9005 19.8333 40.8333C19.8333 42.7662 21.4005 44.3333 23.3333 44.3333ZM23.3333 39.6667C23.9776 39.6667 24.5 40.1891 24.5 40.8333C24.5 41.4776 23.9776 42 23.3333 42C22.689 42 22.1667 41.4776 22.1667 40.8333C22.1667 40.1891 22.689 39.6667 23.3333 39.6667Z" fill="#275BA8"/>
<path d="M21 57.1667H37.3333V47.8333H21V57.1667ZM23.3333 50.1667H35V54.8333H23.3333V50.1667Z" fill="#275BA8"/>
<path d="M32.6667 18.6667H35V21H32.6667V18.6667Z" fill="#275BA8"/>
<path d="M37.3333 18.6667H53.6667V21H37.3333V18.6667Z" fill="#275BA8"/>
<path d="M32.6667 23.3333H35V25.6667H32.6667V23.3333Z" fill="#275BA8"/>
<path d="M37.3333 23.3333H53.6667V25.6667H37.3333V23.3333Z" fill="#275BA8"/>
<path d="M32.6667 30.3333H51.3333V39.6667H49V42H53.6667V28H32.6667V30.3333Z" fill="#275BA8"/>
<path d="M49 44.3333H53.6667V46.6667H49V44.3333Z" fill="#275BA8"/>
</svg>
