<svg width="70" height="70" viewBox="0 0 70 70" fill="none" xmlns="http://www.w3.org/2000/svg">
<path d="M29.1667 9.33334H31.5V11.6667H29.1667V9.33334Z" fill="#275BA8"/>
<path d="M33.8333 9.33334H52.5V11.6667H33.8333V9.33334Z" fill="#275BA8"/>
<path d="M29.1667 14H31.5V16.3333H29.1667V14Z" fill="#275BA8"/>
<path d="M33.8333 14H52.5V16.3333H33.8333V14Z" fill="#275BA8"/>
<path d="M17.5 32.6667H52.5V18.6667H17.5V32.6667ZM19.8333 21H50.1667V30.3333H19.8333V21Z" fill="#275BA8"/>
<path d="M64.1667 7H61.8333V9.33333H64.1667C66.0995 9.33333 67.6667 10.9005 67.6667 12.8333V42H59.5V0H25.1836L10.5 14.6836V42H2.33333V12.8333C2.33333 10.9005 3.90047 9.33333 5.83333 9.33333H14V7H5.83333C2.61304 7.00399 0.00398764 9.61304 0 12.8333V50.1667C0.00398764 53.387 2.61304 55.996 5.83333 56H25.6667V60.6667H18.6667C16.7338 60.6667 15.1667 62.2338 15.1667 64.1667V70H54.8333V64.1667C54.8333 62.2338 53.2662 60.6667 51.3333 60.6667H49V63H51.3333C51.9776 63 52.5 63.5224 52.5 64.1667V67.6667H17.5V64.1667C17.5 63.5224 18.0224 63 18.6667 63H46.6667V60.6667H44.3333V56H64.1667C67.387 55.996 69.996 53.387 70 50.1667V12.8333C69.996 9.61304 67.387 7.00399 64.1667 7ZM24.5 3.98307V14H14.4831L24.5 3.98307ZM12.8333 16.3333H26.8333V2.33333H57.1667V42H12.8333V16.3333ZM42 60.6667H28V56H42V60.6667ZM64.1667 53.6667H5.83333C3.90047 53.6667 2.33333 52.0995 2.33333 50.1667V44.3333H67.6667V50.1667C67.6667 52.0995 66.0995 53.6667 64.1667 53.6667Z" fill="#275BA8"/>
<path d="M35 45.5C33.0671 45.5 31.5 47.0671 31.5 49C31.5 50.9329 33.0671 52.5 35 52.5C36.9329 52.5 38.5 50.9329 38.5 49C38.5 47.0671 36.9329 45.5 35 45.5ZM35 50.1667C34.3557 50.1667 33.8333 49.6443 33.8333 49C33.8333 48.3557 34.3557 47.8333 35 47.8333C35.6443 47.8333 36.1667 48.3557 36.1667 49C36.1667 49.6443 35.6443 50.1667 35 50.1667Z" fill="#275BA8"/>
<path d="M17.5 35H19.8333V37.3333H17.5V35Z" fill="#275BA8"/>
<path d="M22.1667 35H52.5V37.3333H22.1667V35Z" fill="#275BA8"/>
</svg>
