<svg width="70" height="70" viewBox="0 0 70 70" fill="none" xmlns="http://www.w3.org/2000/svg">
<path d="M9.33335 16.3333C9.33335 17.6219 8.28859 18.6667 7.00002 18.6667C5.71145 18.6667 4.66669 17.6219 4.66669 16.3333C4.66669 15.0448 5.71145 14 7.00002 14C8.28859 14 9.33335 15.0448 9.33335 16.3333Z" fill="#2054A2"/>
<path d="M15.1667 16.3333C15.1667 17.6219 14.1219 18.6667 12.8333 18.6667C11.5448 18.6667 10.5 17.6219 10.5 16.3333C10.5 15.0448 11.5448 14 12.8333 14C14.1219 14 15.1667 15.0448 15.1667 16.3333Z" fill="#2054A2"/>
<path d="M21 16.3333C21 17.6219 19.9553 18.6667 18.6667 18.6667C17.3781 18.6667 16.3333 17.6219 16.3333 16.3333C16.3333 15.0448 17.3781 14 18.6667 14C19.9553 14 21 15.0448 21 16.3333Z" fill="#2054A2"/>
<path d="M36.1667 42H3.5C1.56714 42 0 43.5671 0 45.5V66.5C0 68.4329 1.56714 70 3.5 70H36.1667C38.0995 70 39.6667 68.4329 39.6667 66.5V45.5C39.6667 43.5671 38.0995 42 36.1667 42ZM2.33333 49H37.3333V51.3333H2.33333V49ZM37.3333 66.5C37.3333 67.1443 36.811 67.6667 36.1667 67.6667H3.5C2.85571 67.6667 2.33333 67.1443 2.33333 66.5V53.6667H37.3333V66.5ZM2.33333 46.6667V45.5C2.33333 44.8557 2.85571 44.3333 3.5 44.3333H36.1667C36.811 44.3333 37.3333 44.8557 37.3333 45.5V46.6667H2.33333Z" fill="#2054A2"/>
<path d="M22.1666 66.5C23.5122 66.4954 24.7888 65.9075 25.6667 64.8878C26.9421 66.361 28.9986 66.8868 30.8249 66.206C32.6507 65.5253 33.8618 63.7821 33.8618 61.8333C33.8618 59.8845 32.6507 58.1414 30.8249 57.4606C28.9986 56.7799 26.9421 57.3057 25.6667 58.7788C24.2539 57.161 21.9177 56.7195 20.0116 57.7101C18.1055 58.7002 17.124 60.8655 17.6356 62.9516C18.1471 65.0377 20.0185 66.5034 22.1666 66.5ZM29.1667 59.5C30.4552 59.5 31.5 60.5448 31.5 61.8333C31.5 63.1219 30.4552 64.1667 29.1667 64.1667C27.8781 64.1667 26.8333 63.1219 26.8333 61.8333C26.8333 60.5448 27.8781 59.5 29.1667 59.5ZM22.1666 59.5C23.4552 59.5 24.5 60.5448 24.5 61.8333C24.5 63.1219 23.4552 64.1667 22.1666 64.1667C20.8781 64.1667 19.8333 63.1219 19.8333 61.8333C19.8333 60.5448 20.8781 59.5 22.1666 59.5Z" fill="#2054A2"/>
<path d="M4.66669 61.8333H14V64.1667H4.66669V61.8333Z" fill="#2054A2"/>
<path d="M53.6667 0C47.3656 0.00854493 41.632 3.64071 38.9318 9.33333H3.5C1.56714 9.33333 0 10.9005 0 12.8333V40.8333H2.33333V23.3333H38.9318C41.505 28.7787 46.8717 32.3608 52.8879 32.6479C58.9036 32.9344 64.5871 29.8793 67.6667 24.7028V61.8333C67.6667 62.4776 67.1443 63 66.5 63H42V65.3333H66.5C68.4329 65.3333 70 63.7662 70 61.8333V16.3333C69.9903 7.31673 62.6833 0.00968424 53.6667 0ZM2.33333 21V12.8333C2.33333 12.189 2.85571 11.6667 3.5 11.6667H38.0215C37.1038 14.7104 37.1038 17.9563 38.0215 21H2.33333ZM53.6667 30.3333C45.9347 30.3333 39.6667 24.0653 39.6667 16.3333C39.6667 8.60132 45.9347 2.33333 53.6667 2.33333C61.3987 2.33333 67.6667 8.60132 67.6667 16.3333C67.6581 24.0619 61.3953 30.3248 53.6667 30.3333Z" fill="#2054A2"/>
<path d="M62.5403 9.30884L50.1667 21.6836L44.3914 15.9089L42.7423 17.5581L50.1667 24.9831L64.1912 10.9597L62.5403 9.30884Z" fill="#2054A2"/>
<path d="M50.1667 39.6667H64.1667V42H50.1667V39.6667Z" fill="#2054A2"/>
<path d="M47.8333 40.8333C47.8333 42.1219 46.7886 43.1667 45.5 43.1667C44.2114 43.1667 43.1667 42.1219 43.1667 40.8333C43.1667 39.5448 44.2114 38.5 45.5 38.5C46.7886 38.5 47.8333 39.5448 47.8333 40.8333Z" fill="#2054A2"/>
<path d="M50.1667 46.6667H64.1667V49H50.1667V46.6667Z" fill="#2054A2"/>
<path d="M47.8333 47.8333C47.8333 49.1219 46.7886 50.1667 45.5 50.1667C44.2114 50.1667 43.1667 49.1219 43.1667 47.8333C43.1667 46.5448 44.2114 45.5 45.5 45.5C46.7886 45.5 47.8333 46.5448 47.8333 47.8333Z" fill="#2054A2"/>
<path d="M50.1667 53.6667H64.1667V56H50.1667V53.6667Z" fill="#2054A2"/>
<path d="M47.8333 54.8333C47.8333 56.1219 46.7886 57.1667 45.5 57.1667C44.2114 57.1667 43.1667 56.1219 43.1667 54.8333C43.1667 53.5448 44.2114 52.5 45.5 52.5C46.7886 52.5 47.8333 53.5448 47.8333 54.8333Z" fill="#2054A2"/>
<path d="M8.16669 29.1667H10.5V31.5H8.16669V29.1667Z" fill="#2054A2"/>
<path d="M12.8333 29.1667H33.8333V31.5H12.8333V29.1667Z" fill="#2054A2"/>
<path d="M8.16669 33.8333H33.8334V36.1667H8.16669V33.8333Z" fill="#2054A2"/>
</svg>
