<svg width="70" height="70" viewBox="0 0 70 70" fill="none" xmlns="http://www.w3.org/2000/svg">
<path d="M51.3333 18.6667V0H18.6667V18.6667H0V46.6667H2.33333V21H18.6667V67.6667H9.33333V62.8194C12.0273 61.9769 14 58.2598 14 53.6667C14 48.4332 11.4331 44.3333 8.16667 44.3333C4.90023 44.3333 2.33333 48.4332 2.33333 53.6667C2.33333 58.2598 4.30607 61.9769 7 62.8194V67.6667H0V70H70V18.6667H51.3333ZM4.66667 53.6667C4.66667 49.5412 6.51123 46.6667 8.16667 46.6667C9.8221 46.6667 11.6667 49.5412 11.6667 53.6667C11.6667 57.7922 9.8221 60.6667 8.16667 60.6667C6.51123 60.6667 4.66667 57.7922 4.66667 53.6667ZM30.3333 67.6667V53.6667H39.6667V67.6667H30.3333ZM49 67.6667H42V51.3333H28V67.6667H21V2.33333H49V67.6667ZM56 65.3333C56 62.1717 57.603 59.5 59.5 59.5C61.397 59.5 63 62.1717 63 65.3333C63.0011 66.1212 62.8975 66.9062 62.6918 67.6667H56.3082C56.1025 66.9062 55.9989 66.1212 56 65.3333ZM67.6667 67.6667H65.0815C65.2462 66.8999 65.3305 66.1178 65.3333 65.3333C65.3333 60.7544 62.7664 57.1667 59.5 57.1667C56.2336 57.1667 53.6667 60.7544 53.6667 65.3333C53.6695 66.1178 53.7538 66.8999 53.9185 67.6667H51.3333V21H67.6667V67.6667Z" fill="#2054A2"/>
<path d="M23.3333 46.6667H46.6667V49H23.3333V46.6667Z" fill="#2054A2"/>
<path d="M32.6667 7H25.6667V14H32.6667V7ZM30.3333 11.6667H28V9.33333H30.3333V11.6667Z" fill="#2054A2"/>
<path d="M44.3333 7H37.3333V14H44.3333V7ZM42 11.6667H39.6667V9.33333H42V11.6667Z" fill="#2054A2"/>
<path d="M32.6667 16.3333H25.6667V23.3333H32.6667V16.3333ZM30.3333 21H28V18.6667H30.3333V21Z" fill="#2054A2"/>
<path d="M44.3333 16.3333H37.3333V23.3333H44.3333V16.3333ZM42 21H39.6667V18.6667H42V21Z" fill="#2054A2"/>
<path d="M32.6667 25.6667H25.6667V32.6667H32.6667V25.6667ZM30.3333 30.3333H28V28H30.3333V30.3333Z" fill="#2054A2"/>
<path d="M44.3333 25.6667H37.3333V32.6667H44.3333V25.6667ZM42 30.3333H39.6667V28H42V30.3333Z" fill="#2054A2"/>
<path d="M32.6667 35H25.6667V42H32.6667V35ZM30.3333 39.6667H28V37.3333H30.3333V39.6667Z" fill="#2054A2"/>
<path d="M14 25.6667H7V32.6667H14V25.6667ZM11.6667 30.3333H9.33333V28H11.6667V30.3333Z" fill="#2054A2"/>
<path d="M7 42H14V35H7V42ZM9.33333 37.3333H11.6667V39.6667H9.33333V37.3333Z" fill="#2054A2"/>
<path d="M44.3333 35H37.3333V42H44.3333V35ZM42 39.6667H39.6667V37.3333H42V39.6667Z" fill="#2054A2"/>
<path d="M63 25.6667H56V32.6667H63V25.6667ZM60.6667 30.3333H58.3333V28H60.6667V30.3333Z" fill="#2054A2"/>
<path d="M63 35H56V42H63V35ZM60.6667 39.6667H58.3333V37.3333H60.6667V39.6667Z" fill="#2054A2"/>
<path d="M63 44.3333H56V51.3333H63V44.3333ZM60.6667 49H58.3333V46.6667H60.6667V49Z" fill="#2054A2"/>
</svg>
