<svg width="70" height="70" viewBox="0 0 70 70" fill="none" xmlns="http://www.w3.org/2000/svg">
<path d="M26.8333 42C20.3899 42 15.1667 47.2233 15.1667 53.6667C15.1667 60.1101 20.3899 65.3334 26.8333 65.3334C33.2768 65.3334 38.5 60.1101 38.5 53.6667C38.4932 47.2261 33.2739 42.0069 26.8333 42ZM26.8333 63C21.6785 63 17.5 58.8216 17.5 53.6667C17.5 48.5118 21.6785 44.3334 26.8333 44.3334C31.9882 44.3334 36.1667 48.5118 36.1667 53.6667C36.161 58.8187 31.9853 62.9943 26.8333 63Z" fill="#2054A2"/>
<path d="M59.5 67.6667H10.5V39.6667H29.1667C31.0995 39.6667 32.6667 38.0995 32.6667 36.1667V7H45.5V21H59.5V37.3333H61.8333V19.3503L47.1497 4.66667H32.6667V3.5C32.6667 1.56714 31.0995 0 29.1667 0H3.5C1.56714 0 0 1.56714 0 3.5V36.1667C0 38.0995 1.56714 39.6667 3.5 39.6667H8.16667V70H61.8333V53.6667H59.5V67.6667ZM47.8333 8.64974L57.8503 18.6667H47.8333V8.64974ZM2.33333 36.1667V3.5C2.33333 2.85571 2.85571 2.33333 3.5 2.33333H29.1667C29.811 2.33333 30.3333 2.85571 30.3333 3.5V36.1667C30.3333 36.811 29.811 37.3333 29.1667 37.3333H3.5C2.85571 37.3333 2.33333 36.811 2.33333 36.1667Z" fill="#2054A2"/>
<path d="M37.3334 29.1667H39.6667V31.5H37.3334V29.1667Z" fill="#2054A2"/>
<path d="M42 29.1667H56V31.5H42V29.1667Z" fill="#2054A2"/>
<path d="M37.3334 24.5H39.6667V26.8333H37.3334V24.5Z" fill="#2054A2"/>
<path d="M42 24.5H56V26.8333H42V24.5Z" fill="#2054A2"/>
<path d="M37.3334 33.8333H39.6667V36.1666H37.3334V33.8333Z" fill="#2054A2"/>
<path d="M42 33.8333H56V36.1666H42V33.8333Z" fill="#2054A2"/>
<path d="M37.3334 38.5H39.6667V40.8333H37.3334V38.5Z" fill="#2054A2"/>
<path d="M42 38.5H56V40.8333H42V38.5Z" fill="#2054A2"/>
<path d="M29.1667 3.5H3.49998V11.6667H29.1667V3.5ZM26.8333 9.33333H5.83332V5.83333H26.8333V9.33333Z" fill="#2054A2"/>
<path d="M9.33333 12.8333H6.99999C5.71142 12.8333 4.66666 13.8781 4.66666 15.1667V17.5C4.66666 18.7886 5.71142 19.8333 6.99999 19.8333H9.33333C10.6219 19.8333 11.6667 18.7886 11.6667 17.5V15.1667C11.6667 13.8781 10.6219 12.8333 9.33333 12.8333ZM6.99999 17.5V15.1667H9.33333V17.5H6.99999Z" fill="#2054A2"/>
<path d="M17.5 12.8333H15.1667C13.8781 12.8333 12.8333 13.8781 12.8333 15.1667V17.5C12.8333 18.7886 13.8781 19.8333 15.1667 19.8333H17.5C18.7886 19.8333 19.8333 18.7886 19.8333 17.5V15.1667C19.8333 13.8781 18.7886 12.8333 17.5 12.8333ZM15.1667 17.5V15.1667H17.5V17.5H15.1667Z" fill="#2054A2"/>
<path d="M25.6667 12.8333H23.3333C22.0447 12.8333 21 13.8781 21 15.1667V17.5C21 18.7886 22.0447 19.8333 23.3333 19.8333H25.6667C26.9552 19.8333 28 18.7886 28 17.5V15.1667C28 13.8781 26.9552 12.8333 25.6667 12.8333ZM23.3333 17.5V15.1667H25.6667V17.5H23.3333Z" fill="#2054A2"/>
<path d="M9.33333 21H6.99999C5.71142 21 4.66666 22.0448 4.66666 23.3333V25.6667C4.66666 26.9552 5.71142 28 6.99999 28H9.33333C10.6219 28 11.6667 26.9552 11.6667 25.6667V23.3333C11.6667 22.0448 10.6219 21 9.33333 21ZM6.99999 25.6667V23.3333H9.33333V25.6667H6.99999Z" fill="#2054A2"/>
<path d="M17.5 21H15.1667C13.8781 21 12.8333 22.0448 12.8333 23.3333V25.6667C12.8333 26.9552 13.8781 28 15.1667 28H17.5C18.7886 28 19.8333 26.9552 19.8333 25.6667V23.3333C19.8333 22.0448 18.7886 21 17.5 21ZM15.1667 25.6667V23.3333H17.5V25.6667H15.1667Z" fill="#2054A2"/>
<path d="M25.6667 21H23.3333C22.0447 21 21 22.0448 21 23.3333V25.6667C21 26.9552 22.0447 28 23.3333 28H25.6667C26.9552 28 28 26.9552 28 25.6667V23.3333C28 22.0448 26.9552 21 25.6667 21ZM23.3333 25.6667V23.3333H25.6667V25.6667H23.3333Z" fill="#2054A2"/>
<path d="M9.33333 29.1667H6.99999C5.71142 29.1667 4.66666 30.2114 4.66666 31.5V33.8333C4.66666 35.1219 5.71142 36.1667 6.99999 36.1667H9.33333C10.6219 36.1667 11.6667 35.1219 11.6667 33.8333V31.5C11.6667 30.2114 10.6219 29.1667 9.33333 29.1667ZM6.99999 33.8333V31.5H9.33333V33.8333H6.99999Z" fill="#2054A2"/>
<path d="M17.5 29.1667H15.1667C13.8781 29.1667 12.8333 30.2114 12.8333 31.5V33.8333C12.8333 35.1219 13.8781 36.1667 15.1667 36.1667H17.5C18.7886 36.1667 19.8333 35.1219 19.8333 33.8333V31.5C19.8333 30.2114 18.7886 29.1667 17.5 29.1667ZM15.1667 33.8333V31.5H17.5V33.8333H15.1667Z" fill="#2054A2"/>
<path d="M25.6667 29.1667H23.3333C22.0447 29.1667 21 30.2114 21 31.5V33.8333C21 35.1219 22.0447 36.1667 23.3333 36.1667H25.6667C26.9552 36.1667 28 35.1219 28 33.8333V31.5C28 30.2114 26.9552 29.1667 25.6667 29.1667ZM23.3333 33.8333V31.5H25.6667V33.8333H23.3333Z" fill="#2054A2"/>
<path d="M68.9404 37.2263C67.5556 35.9041 65.3766 35.9041 63.9918 37.2263L43.9915 57.2259C43.8947 57.3239 43.8155 57.4378 43.758 57.5632L40.9415 63.679C40.7382 64.1222 40.8322 64.6458 41.1774 64.9904C41.522 65.3356 42.0456 65.4296 42.4887 65.2262L48.6046 62.4098C48.73 62.3523 48.8439 62.2737 48.9419 62.1763L68.9404 42.176C70.3076 40.8094 70.3076 38.5929 68.9404 37.2263ZM47.438 60.3773L44.3812 61.7855L45.7894 58.7287L60.7014 43.8155L62.3511 45.4653L47.438 60.3773ZM64.0043 43.8104L62.3546 42.1612L63.1714 41.3443L64.8212 42.9941L64.0043 43.8104ZM67.2947 40.5206L66.4698 41.3455L64.8201 39.6957L65.6461 38.8709C66.1069 38.43 66.8332 38.43 67.2947 38.8709C67.7498 39.3266 67.7498 40.0649 67.2947 40.5206Z" fill="#2054A2"/>
</svg>
