<svg width="56" height="66" viewBox="0 0 56 66" fill="none" xmlns="http://www.w3.org/2000/svg">
<path d="M55.4641 11.2547L44.5266 0.317187C44.318 0.115723 44.04 0.00215938 43.75 0H6.5625C6.27242 0 5.99422 0.115234 5.7891 0.320352C5.58398 0.52547 5.46875 0.803669 5.46875 1.09375V40.4688H1.09375C0.803669 40.4688 0.52547 40.584 0.320352 40.7891C0.115234 40.9942 0 41.2724 0 41.5625V60.1562C0 60.4463 0.115234 60.7245 0.320352 60.9296C0.52547 61.1348 0.803669 61.25 1.09375 61.25H5.46875V64.5312C5.46875 64.8213 5.58398 65.0995 5.7891 65.3046C5.99422 65.5098 6.27242 65.625 6.5625 65.625H54.6875C54.9776 65.625 55.2558 65.5098 55.4609 65.3046C55.666 65.0995 55.7812 64.8213 55.7812 64.5312V12.0312C55.7791 11.7413 55.6655 11.4632 55.4641 11.2547ZM44.8438 3.72969L52.0516 10.9375H45.9375C45.6474 10.9375 45.3692 10.8223 45.1641 10.6171C44.959 10.412 44.8438 10.1338 44.8438 9.84375V3.72969ZM2.1875 59.0625V42.6562H8.75V59.0625H2.1875ZM53.5938 63.4375H7.65625V61.25H9.84375C10.1338 61.25 10.412 61.1348 10.6171 60.9296C10.8223 60.7245 10.9375 60.4463 10.9375 60.1562V59.8391C12.8567 60.77 14.9623 61.2524 17.0953 61.25H29.5312C30.1044 61.2513 30.6679 61.1021 31.1653 60.8173C31.6628 60.5325 32.0767 60.122 32.3657 59.6271C32.6547 59.1321 32.8087 58.5699 32.8122 57.9967C32.8158 57.4235 32.6688 56.8595 32.3859 56.3609C32.5847 56.2369 32.7682 56.0901 32.9328 55.9234C33.2423 55.6197 33.4879 55.2571 33.6551 54.857C33.8222 54.4569 33.9076 54.0274 33.9062 53.5938C33.9079 53.0296 33.7607 52.4751 33.4797 51.9859C33.6784 51.8619 33.862 51.7151 34.0266 51.5484C34.3361 51.2447 34.5816 50.8821 34.7488 50.482C34.916 50.0819 35.0014 49.6524 35 49.2188C35.0016 48.6546 34.8545 48.1001 34.5734 47.6109C34.7722 47.4869 34.9557 47.3401 35.1203 47.1734C35.4621 46.8346 35.7254 46.4249 35.8917 45.9732C36.058 45.5216 36.1232 45.039 36.0828 44.5594C35.9922 43.7274 35.5945 42.9591 34.9674 42.4049C34.3403 41.8506 33.529 41.5502 32.6922 41.5625H22.9688V36.0938C22.9662 35.2243 22.6196 34.3912 22.0048 33.7764C21.39 33.1616 20.5569 32.8151 19.6875 32.8125H17.5C17.2099 32.8125 16.9317 32.9277 16.7266 33.1329C16.5215 33.338 16.4062 33.6162 16.4062 33.9062V37.1875C16.4062 37.9057 16.2648 38.6168 15.99 39.2803C15.7151 39.9438 15.3123 40.5467 14.8045 41.0545C14.2967 41.5623 13.6938 41.9651 13.0303 42.24C12.3668 42.5148 11.6557 42.6562 10.9375 42.6562V41.5625C10.9375 41.2724 10.8223 40.9942 10.6171 40.7891C10.412 40.584 10.1338 40.4688 9.84375 40.4688H7.65625V2.1875H42.6562V9.84375C42.6588 10.7132 43.0054 11.5463 43.6202 12.1611C44.235 12.7759 45.0681 13.1224 45.9375 13.125H53.5938V63.4375ZM21.875 43.75H32.6922C32.9807 43.7412 33.2625 43.8372 33.4857 44.0202C33.7089 44.2031 33.8583 44.4607 33.9062 44.7453C33.9194 44.9073 33.8957 45.0701 33.837 45.2217C33.7783 45.3732 33.686 45.5095 33.5672 45.6203C33.4703 45.7227 33.3532 45.8038 33.2232 45.8584C33.0933 45.913 32.9534 45.9399 32.8125 45.9375H31.7188C31.4287 45.9375 31.1505 46.0527 30.9454 46.2579C30.7402 46.463 30.625 46.7412 30.625 47.0312C30.625 47.3213 30.7402 47.5995 30.9454 47.8046C31.1505 48.0098 31.4287 48.125 31.7188 48.125C32.0088 48.125 32.287 48.2402 32.4921 48.4454C32.6973 48.6505 32.8125 48.9287 32.8125 49.2188C32.8138 49.3648 32.7842 49.5094 32.7258 49.6432C32.6674 49.777 32.5814 49.897 32.4734 49.9953C32.3766 50.0977 32.2594 50.1788 32.1295 50.2334C31.9996 50.288 31.8597 50.3149 31.7188 50.3125H30.625C30.3349 50.3125 30.0567 50.4277 29.8516 50.6329C29.6465 50.838 29.5312 51.1162 29.5312 51.4062C29.5312 51.6963 29.6465 51.9745 29.8516 52.1796C30.0567 52.3848 30.3349 52.5 30.625 52.5C30.9151 52.5 31.1933 52.6152 31.3984 52.8204C31.6035 53.0255 31.7188 53.3037 31.7188 53.5938C31.72 53.7398 31.6905 53.8844 31.6321 54.0182C31.5736 54.152 31.4876 54.272 31.3797 54.3703C31.2828 54.4727 31.1657 54.5538 31.0357 54.6084C30.9058 54.663 30.7659 54.6899 30.625 54.6875H29.5312C29.2412 54.6875 28.963 54.8027 28.7579 55.0079C28.5527 55.213 28.4375 55.4912 28.4375 55.7812C28.4375 56.0713 28.5527 56.3495 28.7579 56.5546C28.963 56.7598 29.2412 56.875 29.5312 56.875C29.8213 56.875 30.0995 56.9902 30.3046 57.1954C30.5098 57.4005 30.625 57.6787 30.625 57.9688C30.6263 58.1148 30.5967 58.2594 30.5383 58.3932C30.4799 58.527 30.3939 58.647 30.2859 58.7453C30.1891 58.8477 30.0719 58.9288 29.942 58.9834C29.8121 59.038 29.6722 59.0649 29.5312 59.0625H17.0953C14.927 59.0661 12.7985 58.4801 10.9375 57.3672V44.8438C12.9674 44.8414 14.9134 44.0341 16.3487 42.5987C17.7841 41.1634 18.5914 39.2174 18.5938 37.1875V35H19.6875C19.9776 35 20.2558 35.1152 20.4609 35.3204C20.666 35.5255 20.7812 35.8037 20.7812 36.0938V42.6562C20.7812 42.9463 20.8965 43.2245 21.1016 43.4296C21.3067 43.6348 21.5849 43.75 21.875 43.75Z" fill="#275BA8"/>
<path d="M21.875 8.75H39.375C39.6651 8.75 39.9433 8.63477 40.1484 8.42965C40.3535 8.22453 40.4688 7.94633 40.4688 7.65625C40.4688 7.36617 40.3535 7.08797 40.1484 6.88285C39.9433 6.67773 39.6651 6.5625 39.375 6.5625H21.875C21.5849 6.5625 21.3067 6.67773 21.1016 6.88285C20.8965 7.08797 20.7812 7.36617 20.7812 7.65625C20.7812 7.94633 20.8965 8.22453 21.1016 8.42965C21.3067 8.63477 21.5849 8.75 21.875 8.75Z" fill="#275BA8"/>
<path d="M50.3125 54.6875H37.1875C36.8974 54.6875 36.6192 54.8027 36.4141 55.0079C36.209 55.213 36.0938 55.4912 36.0938 55.7812C36.0938 56.0713 36.209 56.3495 36.4141 56.5546C36.6192 56.7598 36.8974 56.875 37.1875 56.875H50.3125C50.6026 56.875 50.8808 56.7598 51.0859 56.5546C51.291 56.3495 51.4062 56.0713 51.4062 55.7812C51.4062 55.4912 51.291 55.213 51.0859 55.0079C50.8808 54.8027 50.6026 54.6875 50.3125 54.6875Z" fill="#275BA8"/>
<path d="M48.125 32.8125H26.25C25.9599 32.8125 25.6817 32.9277 25.4766 33.1329C25.2715 33.338 25.1562 33.6162 25.1562 33.9062C25.1562 34.1963 25.2715 34.4745 25.4766 34.6796C25.6817 34.8848 25.9599 35 26.25 35H48.125C48.4151 35 48.6933 34.8848 48.8984 34.6796C49.1035 34.4745 49.2188 34.1963 49.2188 33.9062C49.2188 33.6162 49.1035 33.338 48.8984 33.1329C48.6933 32.9277 48.4151 32.8125 48.125 32.8125Z" fill="#275BA8"/>
<path d="M49.2188 38.2812C49.2188 37.9912 49.1035 37.713 48.8984 37.5079C48.6933 37.3027 48.4151 37.1875 48.125 37.1875H26.25C25.9599 37.1875 25.6817 37.3027 25.4766 37.5079C25.2715 37.713 25.1562 37.9912 25.1562 38.2812C25.1562 38.5713 25.2715 38.8495 25.4766 39.0546C25.6817 39.2598 25.9599 39.375 26.25 39.375H48.125C48.4151 39.375 48.6933 39.2598 48.8984 39.0546C49.1035 38.8495 49.2188 38.5713 49.2188 38.2812Z" fill="#275BA8"/>
<path d="M13.125 17.5H48.125C48.4151 17.5 48.6933 17.3848 48.8984 17.1796C49.1035 16.9745 49.2188 16.6963 49.2188 16.4062C49.2188 16.1162 49.1035 15.838 48.8984 15.6329C48.6933 15.4277 48.4151 15.3125 48.125 15.3125H13.125C12.8349 15.3125 12.5567 15.4277 12.3516 15.6329C12.1465 15.838 12.0312 16.1162 12.0312 16.4062C12.0312 16.6963 12.1465 16.9745 12.3516 17.1796C12.5567 17.3848 12.8349 17.5 13.125 17.5Z" fill="#275BA8"/>
<path d="M13.125 21.875H48.125C48.4151 21.875 48.6933 21.7598 48.8984 21.5546C49.1035 21.3495 49.2188 21.0713 49.2188 20.7812C49.2188 20.4912 49.1035 20.213 48.8984 20.0079C48.6933 19.8027 48.4151 19.6875 48.125 19.6875H13.125C12.8349 19.6875 12.5567 19.8027 12.3516 20.0079C12.1465 20.213 12.0312 20.4912 12.0312 20.7812C12.0312 21.0713 12.1465 21.3495 12.3516 21.5546C12.5567 21.7598 12.8349 21.875 13.125 21.875Z" fill="#275BA8"/>
<path d="M13.125 26.25H48.125C48.4151 26.25 48.6933 26.1348 48.8984 25.9296C49.1035 25.7245 49.2188 25.4463 49.2188 25.1562C49.2188 24.8662 49.1035 24.588 48.8984 24.3829C48.6933 24.1777 48.4151 24.0625 48.125 24.0625H13.125C12.8349 24.0625 12.5567 24.1777 12.3516 24.3829C12.1465 24.588 12.0312 24.8662 12.0312 25.1562C12.0312 25.4463 12.1465 25.7245 12.3516 25.9296C12.5567 26.1348 12.8349 26.25 13.125 26.25Z" fill="#275BA8"/>
<path d="M49.2188 29.5312C49.2188 29.2412 49.1035 28.963 48.8984 28.7579C48.6933 28.5527 48.4151 28.4375 48.125 28.4375H13.125C12.8349 28.4375 12.5567 28.5527 12.3516 28.7579C12.1465 28.963 12.0312 29.2412 12.0312 29.5312C12.0312 29.8213 12.1465 30.0995 12.3516 30.3046C12.5567 30.5098 12.8349 30.625 13.125 30.625H48.125C48.4151 30.625 48.6933 30.5098 48.8984 30.3046C49.1035 30.0995 49.2188 29.8213 49.2188 29.5312Z" fill="#275BA8"/>
<path d="M50.3125 51.4062H49.6716L47.8045 49.5392C47.682 49.417 47.5322 49.3256 47.3674 49.2726C47.2027 49.2196 47.0277 49.2064 46.8569 49.2342C46.686 49.2619 46.5242 49.3298 46.3848 49.4323C46.2453 49.5348 46.1321 49.6689 46.0545 49.8236L45.2616 51.4062H44.1678C44.609 50.833 44.8468 50.1292 44.8438 49.4058V49.1269C44.8435 48.4295 44.6147 47.7515 44.1925 47.1966C43.7702 46.6417 43.1777 46.2404 42.5057 46.0543C41.8336 45.8682 41.1191 45.9074 40.4715 46.166C39.8239 46.4247 39.279 46.8884 38.92 47.4862L36.2502 51.9367C36.1731 52.0599 36.1213 52.1972 36.0979 52.3406C36.0745 52.484 36.0798 52.6306 36.1137 52.7719C36.1476 52.9132 36.2093 53.0463 36.2952 53.1635C36.381 53.2807 36.4894 53.3796 36.614 53.4544C36.7385 53.5293 36.8767 53.5785 37.0205 53.5994C37.1643 53.6202 37.3108 53.6122 37.4515 53.5758C37.5921 53.5393 37.7241 53.4753 37.8397 53.3873C37.9553 53.2993 38.0523 53.1891 38.1249 53.0633L40.7969 48.6106C40.91 48.4234 41.0812 48.2784 41.2844 48.1977C41.4876 48.1169 41.7117 48.1049 41.9224 48.1634C42.1331 48.2219 42.3189 48.3477 42.4514 48.5217C42.5839 48.6956 42.6559 48.9082 42.6563 49.1269V49.4058C42.6564 49.5496 42.6281 49.692 42.5731 49.8249C42.5181 49.9577 42.4375 50.0785 42.3358 50.1801L40.7892 51.7267C40.6363 51.8797 40.5322 52.0745 40.49 52.2867C40.4478 52.4988 40.4695 52.7187 40.5522 52.9185C40.635 53.1183 40.7752 53.2891 40.955 53.4093C41.1348 53.5295 41.3462 53.5937 41.5625 53.5937H45.9375C46.1417 53.5949 46.3421 53.5388 46.5161 53.4319C46.6901 53.325 46.8306 53.1715 46.9219 52.9889L47.3364 52.1587L48.451 53.2733C48.6547 53.4771 48.9306 53.5922 49.2188 53.5937H50.3125C50.6026 53.5937 50.8808 53.4785 51.0859 53.2734C51.291 53.0683 51.4063 52.7901 51.4063 52.5C51.4063 52.2099 51.291 51.9317 51.0859 51.7266C50.8808 51.5215 50.6026 51.4062 50.3125 51.4062Z" fill="#275BA8"/>
</svg>
