<svg width="24" height="24" viewBox="0 0 24 24" fill="none" xmlns="http://www.w3.org/2000/svg">
<path d="M12 0.333374C9.73723 0.337673 7.52454 0.999904 5.63144 2.2394C3.73834 3.4789 2.24655 5.24217 1.33777 7.31444C0.42899 9.3867 0.142445 11.6785 0.513037 13.9108C0.883629 16.143 1.89536 18.2193 3.42501 19.8867C4.5175 21.0709 5.84344 22.016 7.31927 22.6624C8.79509 23.3089 10.3888 23.6426 12 23.6426C13.6112 23.6426 15.2049 23.3089 16.6807 22.6624C18.1566 22.016 19.4825 21.0709 20.575 19.8867C22.1047 18.2193 23.1164 16.143 23.487 13.9108C23.8576 11.6785 23.571 9.3867 22.6622 7.31444C21.7535 5.24217 20.2617 3.4789 18.3686 2.2394C16.4755 0.999904 14.2628 0.337673 12 0.333374ZM12 21.3334C9.58321 21.3297 7.26207 20.3887 5.52501 18.7084C6.05239 17.4245 6.94954 16.3264 8.10247 15.5536C9.25539 14.7808 10.612 14.3681 12 14.3681C13.388 14.3681 14.7446 14.7808 15.8975 15.5536C17.0505 16.3264 17.9476 17.4245 18.475 18.7084C16.7379 20.3887 14.4168 21.3297 12 21.3334ZM9.66667 9.66671C9.66667 9.20522 9.80352 8.75409 10.0599 8.37038C10.3163 7.98666 10.6807 7.68759 11.1071 7.51099C11.5334 7.33438 12.0026 7.28818 12.4552 7.37821C12.9078 7.46824 13.3236 7.69047 13.6499 8.01679C13.9762 8.34311 14.1985 8.75887 14.2885 9.2115C14.3785 9.66412 14.3323 10.1333 14.1557 10.5596C13.9791 10.986 13.6801 11.3504 13.2963 11.6068C12.9126 11.8632 12.4615 12 12 12C11.3812 12 10.7877 11.7542 10.3501 11.3166C9.91251 10.879 9.66667 10.2855 9.66667 9.66671ZM20.0617 16.6667C19.0193 14.8838 17.415 13.4969 15.5 12.7234C16.094 12.0498 16.4811 11.2191 16.6147 10.331C16.7484 9.44296 16.6229 8.53517 16.2534 7.71662C15.8839 6.89807 15.286 6.20353 14.5316 5.71633C13.7771 5.22914 12.8981 4.97 12 4.97C11.1019 4.97 10.2229 5.22914 9.46845 5.71633C8.71399 6.20353 8.11614 6.89807 7.74663 7.71662C7.37712 8.53517 7.25166 9.44296 7.38529 10.331C7.51892 11.2191 7.90598 12.0498 8.50001 12.7234C6.58504 13.4969 4.98072 14.8838 3.93834 16.6667C3.10761 15.2517 2.66868 13.6409 2.66667 12C2.66667 9.52469 3.65 7.15072 5.40034 5.40038C7.15068 3.65004 9.52465 2.66671 12 2.66671C14.4754 2.66671 16.8493 3.65004 18.5997 5.40038C20.35 7.15072 21.3333 9.52469 21.3333 12C21.3313 13.6409 20.8924 15.2517 20.0617 16.6667Z" fill="#275BA8"/>
</svg>
