<svg width="24" height="24" viewBox="0 0 24 24" fill="none" xmlns="http://www.w3.org/2000/svg">
<path d="M14.3333 11.4283H17.1567C17.3102 11.4292 17.4624 11.3997 17.6046 11.3417C17.7467 11.2836 17.876 11.1981 17.985 11.0899L23.3283 5.74661C23.4377 5.63815 23.5245 5.50912 23.5837 5.36695C23.6429 5.22478 23.6734 5.07229 23.6734 4.91827C23.6734 4.76426 23.6429 4.61177 23.5837 4.4696C23.5245 4.32743 23.4377 4.1984 23.3283 4.08994L20.505 1.26661C20.3966 1.15726 20.2675 1.07046 20.1253 1.01123C19.9832 0.952003 19.8307 0.921509 19.6767 0.921509C19.5227 0.921509 19.3702 0.952003 19.228 1.01123C19.0858 1.07046 18.9568 1.15726 18.8483 1.26661L13.505 6.60994C13.2918 6.83351 13.171 7.12938 13.1667 7.43827V10.2616C13.1667 10.571 13.2896 10.8678 13.5084 11.0866C13.7272 11.3054 14.0239 11.4283 14.3333 11.4283ZM15.5 7.92827L19.6767 3.75161L20.8433 4.91827L16.6667 9.09494H15.5V7.92827ZM22.5 10.2616C22.1906 10.2616 21.8938 10.3845 21.6751 10.6033C21.4563 10.8221 21.3333 11.1189 21.3333 11.4283V19.5949C21.3333 19.9044 21.2104 20.2011 20.9916 20.4199C20.7728 20.6387 20.4761 20.7616 20.1667 20.7616H3.83334C3.52392 20.7616 3.22718 20.6387 3.00839 20.4199C2.78959 20.2011 2.66668 19.9044 2.66668 19.5949V8.38327L9.52668 15.2549C9.85225 15.5848 10.2401 15.8466 10.6677 16.0254C11.0952 16.2041 11.5541 16.2961 12.0175 16.2961C12.4809 16.2961 12.9398 16.2041 13.3674 16.0254C13.7949 15.8466 14.1828 15.5848 14.5083 15.2549C14.7221 15.0369 14.8418 14.7437 14.8418 14.4383C14.8418 14.1329 14.7221 13.8397 14.5083 13.6216C14.3997 13.5105 14.2699 13.4222 14.1267 13.3619C13.9834 13.3016 13.8296 13.2706 13.6742 13.2706C13.5188 13.2706 13.3649 13.3016 13.2217 13.3619C13.0784 13.4222 12.9487 13.5105 12.84 13.6216C12.6219 13.8354 12.3287 13.9551 12.0233 13.9551C11.718 13.9551 11.4248 13.8354 11.2067 13.6216L4.31168 6.73827H9.66668C9.9761 6.73827 10.2728 6.61536 10.4916 6.39657C10.7104 6.17777 10.8333 5.88103 10.8333 5.57161C10.8333 5.26219 10.7104 4.96544 10.4916 4.74665C10.2728 4.52786 9.9761 4.40494 9.66668 4.40494H3.83334C2.90509 4.40494 2.01485 4.77369 1.35847 5.43007C0.702093 6.08644 0.333344 6.97668 0.333344 7.90494V19.5716C0.333344 20.4999 0.702093 21.3901 1.35847 22.0465C2.01485 22.7029 2.90509 23.0716 3.83334 23.0716H20.1667C21.0949 23.0716 21.9852 22.7029 22.6416 22.0465C23.2979 21.3901 23.6667 20.4999 23.6667 19.5716V11.4049C23.6667 11.0955 23.5438 10.7988 23.325 10.58C23.1062 10.3612 22.8094 10.2383 22.5 10.2383V10.2616Z" fill="#275BA8"/>
</svg>
