<svg width="21" height="22" viewBox="0 0 21 22" fill="none" xmlns="http://www.w3.org/2000/svg">
<path d="M18.9963 18.2537L15.75 15.0337C17.0101 13.4626 17.6203 11.4684 17.4552 9.46112C17.2901 7.45387 16.3622 5.58616 14.8623 4.24204C13.3625 2.89792 11.4046 2.17955 9.39132 2.23464C7.37804 2.28973 5.46239 3.11409 4.03826 4.53823C2.61412 5.96236 1.78976 7.87801 1.73467 9.89129C1.67958 11.9046 2.39795 13.8624 3.74207 15.3623C5.08619 16.8622 6.9539 17.7901 8.96115 17.9552C10.9684 18.1203 12.9626 17.5101 14.5338 16.25L17.7538 19.47C17.8351 19.552 17.9319 19.6171 18.0385 19.6615C18.1451 19.7059 18.2595 19.7288 18.375 19.7288C18.4905 19.7288 18.6049 19.7059 18.7115 19.6615C18.8181 19.6171 18.9149 19.552 18.9963 19.47C19.154 19.3068 19.2421 19.0888 19.2421 18.8619C19.2421 18.6349 19.154 18.4169 18.9963 18.2537ZM9.62501 16.25C8.4136 16.25 7.22939 15.8908 6.22214 15.2177C5.21489 14.5447 4.42983 13.5881 3.96625 12.4689C3.50266 11.3497 3.38136 10.1182 3.6177 8.93005C3.85403 7.74192 4.43738 6.65055 5.29398 5.79395C6.15058 4.93735 7.24195 4.354 8.43008 4.11767C9.61821 3.88133 10.8497 4.00263 11.9689 4.46622C13.0881 4.9298 14.0447 5.71486 14.7178 6.72211C15.3908 7.72936 15.75 8.91357 15.75 10.125C15.75 11.7494 15.1047 13.3073 13.956 14.456C12.8074 15.6047 11.2495 16.25 9.62501 16.25Z" fill="white"/>
</svg>
